<svg xmlns="http://www.w3.org/2000/svg" xmlns:xlink="http://www.w3.org/1999/xlink" contentStyleType="text/css" height="308px" preserveAspectRatio="none" style="width:634px;height:308px;background:#FFFFFF;" version="1.1" viewBox="0 0 634 308" width="634px" zoomAndPan="magnify"><defs/><g><!--cluster System--><g id="cluster_System"><rect fill="none" height="116" rx="2.5" ry="2.5" style="stroke:#181818;stroke-width:1.0;" width="173.47" x="283.34" y="96.65"/><text fill="#000000" font-family="sans-serif" font-size="14" font-weight="bold" lengthAdjust="spacing" textLength="58.3174" x="340.9163" y="111.6451">System</text></g><g id="elem_UC"><ellipse cx="370.0736" cy="154.6467" fill="#F1F1F1" rx="62.7336" ry="14.9467" style="stroke:#181818;stroke-width:0.5;"/><text fill="#000000" font-family="sans-serif" font-size="14" lengthAdjust="spacing" textLength="71.9961" x="331.0755" y="158.3943">Hair Salon</text></g><!--entity Guest--><g id="elem_Guest"><ellipse cx="82.1691" cy="14" fill="#F1F1F1" rx="8" ry="8" style="stroke:#181818;stroke-width:0.5;"/><path d="M82.1691,22 L82.1691,49 M69.1691,30 L95.1691,30 M82.1691,49 L69.1691,64 M82.1691,49 L95.1691,64 " fill="none" style="stroke:#181818;stroke-width:0.5;"/><text fill="#000000" font-family="sans-serif" font-size="14" lengthAdjust="spacing" textLength="41.1182" x="61.61" y="78.4951">Guest</text></g><!--entity Customer--><g id="elem_Customer"><ellipse cx="82.172" cy="125" fill="#F1F1F1" rx="8" ry="8" style="stroke:#181818;stroke-width:0.5;"/><path d="M82.172,133 L82.172,160 M69.172,141 L95.172,141 M82.172,160 L69.172,175 M82.172,160 L95.172,175 " fill="none" style="stroke:#181818;stroke-width:0.5;"/><text fill="#000000" font-family="sans-serif" font-size="14" lengthAdjust="spacing" textLength="68.0039" x="48.17" y="189.4951">Customer</text></g><!--entity Staff--><g id="elem_Staff"><ellipse cx="596.4863" cy="76" fill="#F1F1F1" rx="8" ry="8" style="stroke:#181818;stroke-width:0.5;"/><path d="M596.4863,84 L596.4863,111 M583.4863,92 L609.4863,92 M596.4863,111 L583.4863,126 M596.4863,111 L609.4863,126 " fill="none" style="stroke:#181818;stroke-width:0.5;"/><text fill="#000000" font-family="sans-serif" font-size="14" lengthAdjust="spacing" textLength="32.8125" x="580.08" y="140.4951">Staff</text></g><!--entity Manager--><g id="elem_Manager"><ellipse cx="596.4931" cy="187" fill="#F1F1F1" rx="8" ry="8" style="stroke:#181818;stroke-width:0.5;"/><path d="M596.4931,195 L596.4931,222 M583.4931,203 L609.4931,203 M596.4931,222 L583.4931,237 M596.4931,222 L609.4931,237 " fill="none" style="stroke:#181818;stroke-width:0.5;"/><text fill="#000000" font-family="sans-serif" font-size="14" lengthAdjust="spacing" textLength="61.3662" x="565.81" y="251.4951">Manager</text></g><!--entity AD--><g id="elem_AD"><ellipse cx="82.1694" cy="236" fill="#F1F1F1" rx="8" ry="8" style="stroke:#181818;stroke-width:0.5;"/><path d="M82.1694,244 L82.1694,271 M69.1694,252 L95.1694,252 M82.1694,271 L69.1694,286 M82.1694,271 L95.1694,286 " fill="none" style="stroke:#181818;stroke-width:0.5;"/><text fill="#000000" font-family="sans-serif" font-size="14" lengthAdjust="spacing" textLength="152.3389" x="6" y="300.4951">System Administrator</text></g><!--reverse link Guest to Customer--><g id="link_Guest_Customer"><path d="M82.17,88.12 C82.17,99.43 82.17,104.75 82.17,116.06 " fill="none" id="Guest-backto-Customer" style="stroke:#181818;stroke-width:1.0;"/><polygon fill="#181818" points="82.17,82.12,78.17,91.12,82.17,87.12,86.17,91.12,82.17,82.12" style="stroke:#181818;stroke-width:1.0;"/></g><!--link Guest to UC--><g id="link_Guest_UC"><path d="M102.82,51.28 C151.14,70.04 276.16,118.58 336.09,141.84 " fill="none" id="Guest-UC" style="stroke:#181818;stroke-width:1.0;"/><text fill="#000000" font-family="sans-serif" font-size="13" lengthAdjust="spacing" textLength="26.7871" x="210.84" y="82.7169">visit</text></g><!--link Customer to UC--><g id="link_Customer_UC"><path d="M116.53,154.65 C163.07,154.65 248.36,154.65 306.84,154.65 " fill="none" id="Customer-UC" style="stroke:#181818;stroke-width:1.0;"/><text fill="#000000" font-family="sans-serif" font-size="13" lengthAdjust="spacing" textLength="23.0103" x="212.34" y="150.7169">use</text></g><!--reverse link Staff to Manager--><g id="link_Staff_Manager"><path d="M596.49,150.12 C596.49,161.43 596.49,166.75 596.49,178.06 " fill="none" id="Staff-backto-Manager" style="stroke:#181818;stroke-width:1.0;"/><polygon fill="#181818" points="596.49,144.12,592.49,153.12,596.49,149.12,600.49,153.12,596.49,144.12" style="stroke:#181818;stroke-width:1.0;"/></g><!--link UC to Staff--><g id="link_UC_Staff"><path d="M417.57,144.5 C468.28,133.43 546.64,116.32 579.81,109.08 " fill="none" id="UC-Staff" style="stroke:#181818;stroke-width:1.0;"/><text fill="#000000" font-family="sans-serif" font-size="13" lengthAdjust="spacing" textLength="53.0854" x="481.81" y="115.7169">manage</text></g><!--link UC to Manager--><g id="link_UC_Manager"><path d="M423.43,162.85 C439.4,165.77 456.92,169.41 472.81,173.65 C504.97,182.24 540.8,195.2 565.39,204.65 " fill="none" id="UC-Manager" style="stroke:#181818;stroke-width:1.0;"/><text fill="#000000" font-family="sans-serif" font-size="13" lengthAdjust="spacing" textLength="53.0854" x="481.81" y="172.7169">manage</text></g><!--link AD to System--><g id="link_AD_System"><path d="M158.66,249.54 C200.35,240.645 251.9725,229.6325 293.6513,220.7413 C304.0709,218.5184 313.8691,216.4282 322.7353,214.5368 C324.9518,214.0639 327.1101,213.6035 329.2053,213.1565 C329.7291,213.0448 330.2489,212.9339 330.7648,212.8238 C331.0227,212.7688 331.2796,212.714 331.5355,212.6594 " fill="none" id="AD-System" style="stroke:#181818;stroke-width:1.0;"/><text fill="#000000" font-family="sans-serif" font-size="13" lengthAdjust="spacing" textLength="69.5576" x="189.34" y="225.7169">administer</text></g><!--SRC=[PO_12i8m38RlUOgmUrz0l8mDzE9f-01XosPXRQN9117VtLfR5BmbNvAlVrUU5JLWjCj5SRAHHxN10z2e8U9XOz5ITvjeS1m1CiMzoKVcP_2-9h-iZCDTb1q-074J7aaOcoFPY0EjmJT8WkSEdjLbJ6ftUBDY5QglqYI06cXGckTIdyZJafxDx1kduiBDTlreNEPGnd-yI9kIl9sSzLOqKg8vRzi3j3sQoPJVxP3A4iSN]--></g></svg>