<svg xmlns="http://www.w3.org/2000/svg" xmlns:xlink="http://www.w3.org/1999/xlink" contentStyleType="text/css" height="1033px" preserveAspectRatio="none" style="width:1077px;height:1033px;background:#FFFFFF;" version="1.1" viewBox="0 0 1077 1033" width="1077px" zoomAndPan="magnify"><defs/><g><!--cluster SS--><g id="cluster_SS"><rect fill="none" height="991" rx="2.5" ry="2.5" style="stroke:#181818;stroke-width:1.0;" width="641.83" x="283.34" y="7"/><text fill="#000000" font-family="sans-serif" font-size="14" font-weight="bold" lengthAdjust="spacing" textLength="58.3174" x="575.0963" y="21.9951">System</text></g><!--cluster F--><g id="cluster_F"><rect fill="none" height="633" rx="2.5" ry="2.5" style="stroke:#181818;stroke-width:1.0;" width="244.46" x="323.34" y="114"/><text fill="#000000" font-family="sans-serif" font-size="14" font-weight="bold" lengthAdjust="spacing" textLength="36.1006" x="427.5197" y="128.9951">User</text></g><!--cluster B--><g id="cluster_B"><rect fill="none" height="836" rx="2.5" ry="2.5" style="stroke:#181818;stroke-width:1.0;" width="266.28" x="618.89" y="114"/><text fill="#000000" font-family="sans-serif" font-size="14" font-weight="bold" lengthAdjust="spacing" textLength="50.21" x="726.925" y="128.9951">Admin</text></g><g id="elem_N2"><path d="M622.8,49.87 L622.8,90.1356 L881.2658,90.1356 L881.2658,59.87 L871.2658,49.87 L622.8,49.87 " fill="#87CEFA" style="stroke:#181818;stroke-width:0.5;"/><path d="M871.2658,49.87 L871.2658,59.87 L881.2658,59.87 L871.2658,49.87 " fill="#87CEFA" style="stroke:#181818;stroke-width:1.0;"/><text fill="#000000" font-family="sans-serif" font-size="13" lengthAdjust="spacing" textLength="157.7456" x="628.8" y="66.9369">Qu&#7843;n l&#253; th&#432;&#7901;ng l&#224; CRUD</text><text fill="#000000" font-family="sans-serif" font-size="13" lengthAdjust="spacing" textLength="237.4658" x="628.8" y="82.0697">CRUD: Create, Read, Update, Delete</text></g><g id="elem_UC5"><ellipse cx="445.5655" cy="74.9991" fill="#FFFFCC" rx="64.3455" ry="15.2691" style="stroke:#181818;stroke-width:0.5;"/><text fill="#000000" font-family="sans-serif" font-size="14" lengthAdjust="spacing" textLength="76.8496" x="404.1407" y="78.7467">&#272;&#259;ng nh&#7853;p</text></g><g id="elem_UC1"><ellipse cx="445.5666" cy="194.9973" fill="#FFFFCC" rx="80.6866" ry="18.5373" style="stroke:#181818;stroke-width:0.5;"/><text fill="#000000" font-family="sans-serif" font-size="14" lengthAdjust="spacing" textLength="120.1826" x="384.0651" y="198.3015">T&#236;m ki&#7871;m d&#7883;ch v&#7909;</text></g><g id="elem_UC2"><ellipse cx="445.5693" cy="265.0039" fill="#FFFFCC" rx="67.9693" ry="15.9939" style="stroke:#181818;stroke-width:0.5;"/><text fill="#000000" font-family="sans-serif" font-size="14" lengthAdjust="spacing" textLength="87.2471" x="398.9457" y="268.7514">Xem d&#7883;ch v&#7909;</text></g><g id="elem_UC3"><ellipse cx="445.568" cy="334.9996" fill="#FFFFCC" rx="80.698" ry="18.5396" style="stroke:#181818;stroke-width:0.5;"/><text fill="#000000" font-family="sans-serif" font-size="14" lengthAdjust="spacing" textLength="120.21" x="384.057" y="338.3025">S&#7917; d&#7909;ng tr&#7907; l&#253; &#7843;o</text></g><g id="elem_UC4"><ellipse cx="445.5698" cy="403.0017" fill="#FFFFCC" rx="53.3698" ry="14.7217" style="stroke:#181818;stroke-width:0.5;"/><text fill="#000000" font-family="sans-serif" font-size="14" lengthAdjust="spacing" textLength="58.0303" x="413.5547" y="406.7492">&#272;&#259;ng k&#253;</text></g><g id="elem_UC6"><ellipse cx="445.5657" cy="470.9971" fill="#FFFFCC" rx="77.9857" ry="17.9971" style="stroke:#181818;stroke-width:0.5;"/><text fill="#000000" font-family="sans-serif" font-size="14" lengthAdjust="spacing" textLength="113.5791" x="386.3179" y="474.6015">Qu&#7843;n l&#253; l&#7883;ch h&#7865;n</text></g><g id="elem_UC7"><ellipse cx="445.5723" cy="541.9985" fill="#FFFFCC" rx="79.9423" ry="18.3885" style="stroke:#181818;stroke-width:0.5;"/><text fill="#000000" font-family="sans-serif" font-size="14" lengthAdjust="spacing" textLength="118.3848" x="384.6918" y="545.3854">&#272;&#225;nh gi&#225; d&#7883;ch v&#7909;</text></g><g id="elem_UC8"><ellipse cx="445.5694" cy="621.9963" fill="#FFFFCC" rx="98.2294" ry="26.1963" style="stroke:#181818;stroke-width:0.5;"/><text fill="#000000" font-family="sans-serif" font-size="14" lengthAdjust="spacing" textLength="121.8096" x="381.6646" y="617.5954">Qu&#7843;n l&#253; th&#244;ng tin</text><text fill="#000000" font-family="sans-serif" font-size="14" lengthAdjust="spacing" textLength="55.9248" x="414.607" y="633.8923">c&#225; nh&#226;n</text></g><g id="elem_UC20"><ellipse cx="445.5699" cy="703" fill="#FFFFCC" rx="88.9999" ry="20.2" style="stroke:#181818;stroke-width:0.5;"/><text fill="#000000" font-family="sans-serif" font-size="14" lengthAdjust="spacing" textLength="139.4736" x="375.8331" y="705.8467">Xem l&#7883;ch s&#7917; &#273;&#7863;t h&#7865;n</text></g><g id="elem_UC9"><ellipse cx="752.0282" cy="520.0042" fill="#FFFFCC" rx="92.2482" ry="26.1642" style="stroke:#181818;stroke-width:0.5;"/><text fill="#000000" font-family="sans-serif" font-size="14" lengthAdjust="spacing" textLength="113.5791" x="692.2387" y="515.6033">Qu&#7843;n l&#253; l&#7883;ch h&#7865;n</text><text fill="#000000" font-family="sans-serif" font-size="14" lengthAdjust="spacing" textLength="81.792" x="708.1322" y="531.9002">kh&#225;ch h&#224;ng</text></g><g id="elem_UC10"><ellipse cx="752.0326" cy="437.9965" fill="#FFFFCC" rx="91.3326" ry="20.6665" style="stroke:#181818;stroke-width:0.5;"/><text fill="#000000" font-family="sans-serif" font-size="14" lengthAdjust="spacing" textLength="144.751" x="679.6571" y="440.8432">Xem l&#7883;ch s&#7917; l&#224;m vi&#7879;c</text></g><g id="elem_UC11"><ellipse cx="752.0291" cy="355.9958" fill="#FFFFCC" rx="109.1391" ry="26.2458" style="stroke:#181818;stroke-width:0.5;"/><text fill="#000000" font-family="sans-serif" font-size="14" lengthAdjust="spacing" textLength="136.8213" x="680.6184" y="351.5949">C&#7853;p nh&#7853;t tr&#7841;ng th&#225;i</text><text fill="#000000" font-family="sans-serif" font-size="14" lengthAdjust="spacing" textLength="66.5273" x="715.7654" y="367.8918">(v&#7855;ng/c&#243;)</text></g><g id="elem_UC12"><ellipse cx="752.0279" cy="272.0016" fill="#FFFFCC" rx="101.8079" ry="22.7616" style="stroke:#181818;stroke-width:0.5;"/><text fill="#000000" font-family="sans-serif" font-size="14" lengthAdjust="spacing" textLength="168.0342" x="668.0108" y="274.8483">T&#7841;o h&#243;a &#273;&#417;n thanh to&#225;n</text></g><g id="elem_UC13"><ellipse cx="752.0337" cy="194.9987" fill="#FFFFCC" rx="83.1437" ry="19.0287" style="stroke:#181818;stroke-width:0.5;"/><text fill="#000000" font-family="sans-serif" font-size="14" lengthAdjust="spacing" textLength="126.0137" x="688.4824" y="198.0299">Ph&#7843;n h&#7891;i &#273;&#225;nh gi&#225;</text></g><g id="elem_UC14"><ellipse cx="752.0251" cy="599.003" fill="#FFFFCC" rx="76.3151" ry="17.663" style="stroke:#181818;stroke-width:0.5;"/><text fill="#000000" font-family="sans-serif" font-size="14" lengthAdjust="spacing" textLength="109.375" x="694.3376" y="602.7506">Qu&#7843;n l&#253; d&#7883;ch v&#7909;</text></g><g id="elem_UC15"><ellipse cx="752.0287" cy="906.9957" fill="#FFFFCC" rx="83.8787" ry="19.1757" style="stroke:#181818;stroke-width:0.5;"/><text fill="#000000" font-family="sans-serif" font-size="14" lengthAdjust="spacing" textLength="127.7295" x="687.8642" y="909.9452">Qu&#7843;n l&#253; nh&#226;n vi&#234;n</text></g><g id="elem_UC16"><ellipse cx="752.0304" cy="834.0021" fill="#FFFFCC" rx="80.2104" ry="18.4421" style="stroke:#181818;stroke-width:0.5;"/><text fill="#000000" font-family="sans-serif" font-size="14" lengthAdjust="spacing" textLength="119.0342" x="690.9262" y="837.3592">Qu&#7843;n l&#253; t&#224;i ch&#237;nh</text></g><g id="elem_UC17"><ellipse cx="752.0307" cy="760.0001" fill="#FFFFCC" rx="90.8507" ry="20.5701" style="stroke:#181818;stroke-width:0.5;"/><text fill="#000000" font-family="sans-serif" font-size="14" lengthAdjust="spacing" textLength="143.6641" x="680.1987" y="762.8468">B&#225;o c&#225;o v&#224; th&#7889;ng k&#234;</text></g><g id="elem_UC18"><ellipse cx="752.0297" cy="677.9989" fill="#FFFFCC" rx="105.1597" ry="26.2289" style="stroke:#181818;stroke-width:0.5;"/><text fill="#000000" font-family="sans-serif" font-size="14" lengthAdjust="spacing" textLength="131.3457" x="683.3568" y="673.598">C&#7853;p nh&#7853;t th&#244;ng tin</text><text fill="#000000" font-family="sans-serif" font-size="14" lengthAdjust="spacing" textLength="37.2012" x="730.4291" y="689.8949">salon</text></g><!--entity G--><g id="elem_G"><ellipse cx="82.1691" cy="271.35" fill="#F1F1F1" rx="8" ry="8" style="stroke:#181818;stroke-width:0.5;"/><path d="M82.1691,279.35 L82.1691,306.35 M69.1691,287.35 L95.1691,287.35 M82.1691,306.35 L69.1691,321.35 M82.1691,306.35 L95.1691,321.35 " fill="none" style="stroke:#181818;stroke-width:0.5;"/><text fill="#000000" font-family="sans-serif" font-size="14" lengthAdjust="spacing" textLength="41.1182" x="61.61" y="335.8451">Guest</text></g><!--entity C--><g id="elem_C"><ellipse cx="82.172" cy="512.35" fill="#F1F1F1" rx="8" ry="8" style="stroke:#181818;stroke-width:0.5;"/><path d="M82.172,520.35 L82.172,547.35 M69.172,528.35 L95.172,528.35 M82.172,547.35 L69.172,562.35 M82.172,547.35 L95.172,562.35 " fill="none" style="stroke:#181818;stroke-width:0.5;"/><text fill="#000000" font-family="sans-serif" font-size="14" lengthAdjust="spacing" textLength="68.0039" x="48.17" y="576.8451">Customer</text></g><!--entity S--><g id="elem_S"><ellipse cx="1039.8563" cy="408.35" fill="#F1F1F1" rx="8" ry="8" style="stroke:#181818;stroke-width:0.5;"/><path d="M1039.8563,416.35 L1039.8563,443.35 M1026.8563,424.35 L1052.8563,424.35 M1039.8563,443.35 L1026.8563,458.35 M1039.8563,443.35 L1052.8563,458.35 " fill="none" style="stroke:#181818;stroke-width:0.5;"/><text fill="#000000" font-family="sans-serif" font-size="14" lengthAdjust="spacing" textLength="32.8125" x="1023.45" y="472.8451">Staff</text></g><!--entity M--><g id="elem_M"><ellipse cx="1039.8531" cy="709.35" fill="#F1F1F1" rx="8" ry="8" style="stroke:#181818;stroke-width:0.5;"/><path d="M1039.8531,717.35 L1039.8531,744.35 M1026.8531,725.35 L1052.8531,725.35 M1039.8531,744.35 L1026.8531,759.35 M1039.8531,744.35 L1052.8531,759.35 " fill="none" style="stroke:#181818;stroke-width:0.5;"/><text fill="#000000" font-family="sans-serif" font-size="14" lengthAdjust="spacing" textLength="61.3662" x="1009.17" y="773.8451">Manager</text></g><!--entity AD--><g id="elem_AD"><ellipse cx="82.1694" cy="960.35" fill="#F1F1F1" rx="8" ry="8" style="stroke:#181818;stroke-width:0.5;"/><path d="M82.1694,968.35 L82.1694,995.35 M69.1694,976.35 L95.1694,976.35 M82.1694,995.35 L69.1694,1010.35 M82.1694,995.35 L95.1694,1010.35 " fill="none" style="stroke:#181818;stroke-width:0.5;"/><text fill="#000000" font-family="sans-serif" font-size="14" lengthAdjust="spacing" textLength="152.3389" x="6" y="1024.8451">System Administrator</text></g><!--reverse link G to C--><g id="link_G_C"><path d="M82.17,357.35 C82.17,412.03 82.17,448.72 82.17,503.4 " fill="none" id="G-backto-C" style="stroke:#181818;stroke-width:1.0;"/><polygon fill="none" points="82.17,339.35,76.17,357.35,88.17,357.35,82.17,339.35" style="stroke:#181818;stroke-width:1.0;"/></g><!--reverse link S to M--><g id="link_S_M"><path d="M1039.85,494.45 C1039.85,569.13 1039.85,625.81 1039.85,700.49 " fill="none" id="S-backto-M" style="stroke:#181818;stroke-width:1.0;"/><polygon fill="none" points="1039.85,476.45,1033.85,494.45,1045.85,494.45,1039.85,476.45" style="stroke:#181818;stroke-width:1.0;"/></g><!--link F to B--><!--link N2 to B--><g id="link_N2_B"><path d="M752.03,90.56 C752.03,94.695 752.03,98.8294 752.03,102.9634 C752.03,105.0305 752.03,107.0974 752.03,109.1643 C752.03,110.1978 752.03,111.2312 752.03,112.2647 C752.03,112.7814 752.03,113.2981 752.03,113.8148 " fill="none" id="N2-B" style="stroke:#181818;stroke-width:1.0;stroke-dasharray:7.0,7.0;"/></g><!--link G to UC1--><g id="link_G_UC1"><path d="M103,292.43 C136.39,278.25 206.18,249.73 267.34,232 C304.17,221.33 346.15,212.42 380,206.03 " fill="none" id="G-UC1" style="stroke:#181818;stroke-width:1.0;"/></g><!--link G to UC2--><g id="link_G_UC2"><path d="M103.11,299.01 C155.57,293.79 299.08,279.49 382.41,271.19 " fill="none" id="G-UC2" style="stroke:#181818;stroke-width:1.0;"/></g><!--link G to UC3--><g id="link_G_UC3"><path d="M103.11,302.88 C153.13,307.58 285.92,320.08 370.39,328.02 " fill="none" id="G-UC3" style="stroke:#181818;stroke-width:1.0;"/></g><!--link G to UC4--><g id="link_G_UC4"><path d="M103.2,310.02 C136.59,324.74 206.04,353.97 267.34,371 C310.42,382.97 360.67,391.55 396.64,396.8 " fill="none" id="G-UC4" style="stroke:#181818;stroke-width:1.0;"/></g><!--link G to UC5--><g id="link_G_UC5"><path d="M103.21,269.41 C133.14,225.09 193.93,145.49 267.34,106 C302.14,87.28 345.82,79.49 381.11,76.4 " fill="none" id="G-UC5" style="stroke:#181818;stroke-width:1.0;"/></g><!--link C to UC6--><g id="link_C_UC6"><path d="M116.66,533.1 C137.26,527.78 164.23,521.09 188.34,516 C253.3,502.28 328.14,489.48 380.1,481.07 " fill="none" id="C-UC6" style="stroke:#181818;stroke-width:1.0;"/></g><!--link C to UC7--><g id="link_C_UC7"><path d="M116.52,542 C172.7,542 287.67,542 365.45,542 " fill="none" id="C-UC7" style="stroke:#181818;stroke-width:1.0;"/></g><!--link C to UC8--><g id="link_C_UC8"><path d="M116.52,549.38 C173.57,562.01 291.26,588.07 369.05,605.29 " fill="none" id="C-UC8" style="stroke:#181818;stroke-width:1.0;"/></g><!--link C to UC20--><g id="link_C_UC20"><path d="M116.48,570.33 C151.7,598.79 209.98,641.81 267.34,666 C298.62,679.2 335.05,687.84 366.72,693.43 " fill="none" id="C-UC20" style="stroke:#181818;stroke-width:1.0;"/></g><!--link UC9 to S--><g id="link_UC9_S"><path d="M828.3,504.95 C862.97,497.37 904.48,487.37 941.17,476 C970.72,466.85 1004.1,453.09 1023.19,444.89 " fill="none" id="UC9-S" style="stroke:#181818;stroke-width:1.0;"/></g><!--link UC10 to S--><g id="link_UC10_S"><path d="M843.86,438 C908.43,438 989.43,438 1023.07,438 " fill="none" id="UC10-S" style="stroke:#181818;stroke-width:1.0;"/></g><!--link UC11 to S--><g id="link_UC11_S"><path d="M838.74,372.33 C881.63,381.72 933.91,395.05 979.17,412 C994.31,417.67 1011.15,425.12 1023.08,430.59 " fill="none" id="UC11-S" style="stroke:#181818;stroke-width:1.0;"/></g><!--link UC12 to S--><g id="link_UC12_S"><path d="M848.85,279.2 C880.08,284.87 913.73,294.78 941.17,312 C978.1,335.17 1006.56,377.53 1023,406.69 " fill="none" id="UC12-S" style="stroke:#181818;stroke-width:1.0;"/></g><!--link UC13 to S--><g id="link_UC13_S"><path d="M835.43,195.56 C870.94,199.52 911.12,209.38 941.17,232 C995.72,273.07 1021.11,352.32 1031.87,399.66 " fill="none" id="UC13-S" style="stroke:#181818;stroke-width:1.0;"/></g><!--link UC14 to S--><g id="link_UC14_S"><path d="M828.46,597.3 C864.75,593.52 907.56,584.5 941.17,564 C978.27,541.38 1006.6,499.11 1022.97,469.81 " fill="none" id="UC14-S" style="stroke:#181818;stroke-width:1.0;"/><text fill="#000000" font-family="sans-serif" font-size="13" lengthAdjust="spacing" textLength="28.355" x="950.17" y="530.0669">xem</text></g><!--link UC14 to M--><g id="link_UC14_M"><path d="M827.7,602.03 C863.8,606.13 906.67,615.03 941.17,634 C970.08,649.9 995.23,677.47 1012.77,700.37 " fill="none" id="UC14-M" style="stroke:#181818;stroke-width:1.0;"/></g><!--link UC15 to M--><g id="link_UC15_M"><path d="M835.17,903.85 C870.03,899.35 909.76,889.78 941.17,870 C976.58,847.7 1003.61,807.61 1020.17,777.63 " fill="none" id="UC15-M" style="stroke:#181818;stroke-width:1.0;"/></g><!--link UC16 to M--><g id="link_UC16_M"><path d="M825.26,826.28 C860.97,820.95 904.22,812.17 941.17,798 C965.4,788.71 990.41,773.48 1009.06,760.82 " fill="none" id="UC16-M" style="stroke:#181818;stroke-width:1.0;"/></g><!--link UC17 to M--><g id="link_UC17_M"><path d="M838.79,753.7 C896.34,749.47 968.7,744.16 1008.73,741.22 " fill="none" id="UC17-M" style="stroke:#181818;stroke-width:1.0;"/></g><!--link UC18 to M--><g id="link_UC18_M"><path d="M842.19,691.92 C884.04,699.13 934.44,708.77 979.17,720 C988.87,722.44 999.31,725.58 1008.7,728.6 " fill="none" id="UC18-M" style="stroke:#181818;stroke-width:1.0;"/></g><!--link AD to SS--><g id="link_AD_SS"><path d="M158.49,990 C184.555,990 215.1169,990 246.3838,990 C254.2005,990 262.0613,990 269.9068,990 C273.8296,990 277.7486,990 281.6564,990 C282.1449,990 282.6332,990 283.1213,990 " fill="none" id="AD-SS" style="stroke:#181818;stroke-width:1.0;"/><text fill="#000000" font-family="sans-serif" font-size="13" lengthAdjust="spacing" textLength="69.5576" x="189.34" y="986.0669">administer</text></g><!--SRC=[VLHDRzD04BtlhnZb159TsgHfGiMbSMY5H2ge6mc9S5ZPMzkAlQxiTKG5FN7Wm8MACr93rKj51LAH48ag3gxwF_nFcDtu8mb9BzRp-CticvddZVekFw8XzI6Ec4aZ1ky8G8kQVJiCOcxfWHU4qEeQp_QU6WOv8IGgCdWW5jEVkxOZZFvnoukPJF7OeG0HG2ZZOBaXCuKRS4AeAP2-6xD808rWDmleSIG2duKofcSnGz33Gnamia27ScfFE9qiL36E8y5ysBPybxkH22b6AvAntIPa5vwyrq8DAnePwX0YfL1kUonFLdJ3K7sf1YilutHqpi5BRa0uTp_JyLTkuziPwFlTTe_BvnRe8QE2hS0-ezOAT8yizTPc7XDCbToh4goO3xbo-_ds0vRXJZgwEbA4hbv7mfIURiGcudUKcAdaW-Ix3tqt7VtrmKh7dqm71kdu8YkpFaj-nHQHghCa8nrVITO5QX9XEZvNxMBVGSQlpV8p-Vta9lk-CVjzQcRUv6niz0_Fo9lpnP8XTy1sa-42fOsbbOMJ_99wNTxZ9kPo9_cM7z7yVmYPa4YsUdkQZdwB6L7LDKmv8RCxK4vIXDRy4fQqsEDz9ndAj-ICsrdjn_UhGJFvC73JyKSpt-7QR8OkRJ9nYv0B6WrbutYGs-CF1kde1xSVcSdrmpnzpWC7c12WeckAdTyDEQPIdBW8SF1vofmZNZYgFISTVt4ngTXGJgyjdSO2HovtXzePzfvS5aBgonUUdBbWEiaLTtBod9LQ2VPfoiS0Vr21wa-LJIzpVkE-kKxvAQ9UK2XgAcUWDtP0U-subiNu6mrQPAyAg-4g0hnRD4jJ_rwEgWMg5MYZG7L2z0nk5gXHe6Q1q9LuNMcnfboK8xH70TTBM2rXhOGRi0LlcKz8fuYKi5x2pH8sIjWaPBiDcYRln2sWsStAmdy0]--></g></svg>